<?xml version="1.0" standalone="no"?>
<!DOCTYPE svg PUBLIC "-//W3C//DTD SVG 20010904//EN"
 "http://www.w3.org/TR/2001/REC-SVG-20010904/DTD/svg10.dtd">
<svg version="1.0" xmlns="http://www.w3.org/2000/svg"
 width="300.000000pt" height="300.000000pt" viewBox="0 0 300.000000 300.000000"
 preserveAspectRatio="xMidYMid meet">
<metadata>
Created by potrace 1.11, written by Peter Selinger 2001-2013
</metadata>
<g transform="translate(0.000000,300.000000) scale(0.100000,-0.100000)"
fill="#000000" stroke="none">
<path d="M1600 2510 l0 -50 -45 0 -45 0 0 -341 0 -341 -50 4 -50 3 0 -47 0
-48 -72 0 -73 0 3 -50 4 -50 -76 0 -76 0 0 -45 0 -45 -50 0 -50 0 0 -50 0 -50
-100 0 -100 0 0 50 0 50 -50 0 -50 0 0 45 0 45 -45 0 -45 0 0 98 0 97 -45 0
-45 0 0 -285 0 -285 50 3 50 4 0 -51 0 -51 51 0 51 0 -4 -50 -3 -50 48 0 47 0
0 -50 0 -50 50 0 50 0 0 -45 0 -45 45 0 45 0 0 -195 0 -195 95 0 95 0 0 45 0
45 -50 0 -50 0 0 50 0 50 50 0 50 0 0 50 0 50 45 0 45 0 0 50 0 50 55 0 55 0
0 -50 0 -50 50 0 50 0 0 -145 0 -145 90 0 90 0 0 45 0 45 -45 0 -45 0 0 195 0
195 45 0 45 0 0 50 0 50 50 0 50 0 0 100 0 100 45 0 45 0 0 140 0 140 55 0 55
0 0 -45 0 -45 45 0 45 0 0 90 0 90 -100 0 -100 0 0 105 0 105 195 0 195 0 0
40 0 40 -145 0 -145 0 0 55 0 55 240 0 240 0 0 235 0 235 -45 0 -45 0 0 50 0
50 -385 0 -385 0 0 -50z m200 -185 l0 -55 -55 0 -55 0 0 55 0 55 55 0 55 0 0
-55z m-827 -942 c-23 -2 -64 -2 -90 0 -26 2 -7 3 42 3 50 0 71 -1 48 -3z"/>
<path d="M440 750 c0 -19 7 -20 190 -20 183 0 190 1 190 20 0 19 -7 20 -190
20 -183 0 -190 -1 -190 -20z"/>
<path d="M1800 750 c0 -20 7 -20 380 -20 373 0 380 0 380 20 0 20 -7 20 -380
20 -373 0 -380 0 -380 -20z"/>
<path d="M740 560 c0 -19 7 -20 90 -20 83 0 90 1 90 20 0 19 -7 20 -90 20 -83
0 -90 -1 -90 -20z"/>
<path d="M2427 460 c3 -11 12 -20 19 -20 8 0 14 9 14 20 0 13 -7 20 -19 20
-14 0 -18 -5 -14 -20z"/>
<path d="M440 410 c0 -19 7 -20 95 -20 88 0 95 1 95 20 0 19 -7 20 -95 20 -88
0 -95 -1 -95 -20z"/>
</g>
</svg>
