<?xml version="1.0" standalone="no"?>
<!DOCTYPE svg PUBLIC "-//W3C//DTD SVG 20010904//EN"
 "http://www.w3.org/TR/2001/REC-SVG-20010904/DTD/svg10.dtd">
<svg version="1.0" xmlns="http://www.w3.org/2000/svg"
 width="398.000000pt" height="398.000000pt" viewBox="0 0 398.000000 398.000000"
 preserveAspectRatio="xMidYMid meet">
<metadata>
Created by potrace 1.14, written by Peter Selinger 2001-2017
</metadata>
<g transform="translate(0.000000,398.000000) scale(0.100000,-0.100000)"
fill="#000000" stroke="none">
<path d="M1848 3835 c-2 -1 -39 -5 -83 -9 -44 -4 -89 -9 -100 -11 -11 -3 -31
-7 -45 -9 -129 -21 -329 -91 -467 -162 -265 -137 -502 -347 -691 -613 -158
-223 -274 -536 -298 -803 -3 -40 -7 -74 -8 -75 -1 -1 -17 -5 -36 -8 -89 -14
-109 -38 -91 -110 5 -22 17 -69 26 -105 9 -36 18 -73 20 -83 2 -10 7 -28 11
-40 4 -12 9 -31 10 -42 2 -11 8 -38 13 -60 5 -22 13 -56 16 -75 3 -19 10 -59
15 -89 6 -30 10 -85 10 -122 0 -58 4 -72 26 -98 14 -17 29 -29 32 -27 4 2 18
-1 32 -7 14 -5 31 -11 38 -13 18 -3 13 4 66 -99 55 -105 77 -142 129 -214 21
-28 35 -57 31 -63 -4 -6 -3 -8 3 -5 6 4 35 -23 66 -61 51 -63 127 -141 207
-213 19 -17 34 -35 33 -40 -2 -5 0 -8 5 -7 15 4 52 -23 46 -34 -4 -6 -3 -8 3
-5 13 8 85 -48 75 -58 -4 -5 -2 -5 5 -1 16 9 65 -23 56 -37 -3 -6 -1 -7 6 -3
6 4 23 -1 39 -12 35 -25 195 -106 245 -123 20 -7 37 -16 37 -19 0 -3 11 -7 25
-8 14 -1 39 -9 55 -17 16 -9 32 -15 35 -15 23 3 74 -14 68 -23 -4 -6 0 -8 9
-5 8 3 37 2 64 -3 148 -28 260 -39 393 -39 52 0 90 -5 100 -13 12 -9 13 -9 7
1 -4 6 -3 12 3 12 5 0 17 3 27 7 13 5 15 3 9 -7 -6 -10 -4 -11 6 -4 8 4 21 9
28 11 46 6 78 6 90 -1 10 -6 12 -5 7 2 -5 8 1 12 16 13 64 4 74 5 83 10 21 12
67 20 61 10 -4 -5 -1 -13 5 -17 8 -4 9 -3 5 4 -8 13 19 29 60 36 16 3 53 15
83 25 30 11 57 18 62 16 4 -3 9 0 11 6 2 6 15 12 30 12 14 1 25 4 23 7 -2 3
11 12 28 19 18 7 53 24 79 38 27 13 53 21 58 18 6 -4 9 -1 8 7 -2 8 6 13 19
12 12 0 20 3 17 7 -6 11 83 62 96 54 5 -3 8 0 5 7 -6 16 92 84 114 80 12 -2
13 -1 3 6 -15 10 85 95 101 85 6 -3 7 -1 3 6 -9 13 33 52 50 46 6 -2 11 4 10
13 0 9 5 16 12 14 6 -1 11 2 10 6 -5 14 105 132 115 125 6 -3 7 -2 4 4 -6 9
71 126 108 164 8 9 15 21 15 27 0 6 6 17 13 24 6 8 25 39 41 70 16 31 32 55
36 53 3 -2 6 4 7 13 0 9 19 62 42 117 68 160 118 388 125 561 4 83 6 90 32
110 15 13 32 20 37 17 6 -4 7 -1 3 6 -5 8 -1 14 12 18 19 5 40 43 37 68 -1 11
-42 147 -56 185 -5 14 -11 34 -13 45 -3 11 -10 43 -16 70 -18 78 -20 88 -26
120 -15 84 -18 115 -19 167 0 32 -2 58 -5 58 -3 0 -6 18 -7 41 -3 64 -15 72
-100 67 l-72 -5 -51 88 c-138 239 -388 494 -636 647 -189 117 -440 210 -642
237 -20 3 -53 7 -72 11 -36 6 -366 14 -372 9z m295 -684 c17 -1 26 -5 22 -12
-4 -6 -14 -8 -22 -5 -8 3 -12 2 -9 -2 8 -13 -53 -44 -72 -37 -9 4 -29 11 -43
15 -23 7 -25 5 -21 -15 4 -21 1 -23 -50 -22 -120 1 -145 -7 -95 -30 21 -10 21
-11 -13 -20 -27 -8 -34 -15 -33 -31 2 -16 -8 -26 -42 -43 -24 -12 -59 -36 -77
-53 -31 -29 -32 -31 -12 -34 21 -3 21 -4 -7 -34 -38 -42 -61 -91 -47 -99 7 -4
7 -9 -1 -13 -21 -13 -12 -36 15 -36 14 0 23 -4 20 -8 -3 -5 -8 -56 -12 -113
-4 -57 -11 -107 -17 -111 -6 -3 -47 -13 -91 -22 -45 -8 -92 -18 -106 -21 -32
-7 -67 -14 -105 -21 -16 -3 -64 -12 -105 -20 -112 -24 -113 -24 -140 -29 -14
-3 -68 -13 -120 -24 -52 -10 -97 -17 -99 -15 -2 2 2 10 9 19 7 8 10 15 6 15
-3 0 0 16 8 35 8 19 13 35 10 35 -3 0 2 12 10 28 8 15 25 49 36 75 29 67 107
187 122 187 6 0 8 3 5 7 -10 9 24 44 36 36 6 -3 7 -1 3 5 -10 16 66 95 77 79
6 -8 7 -7 3 5 -3 12 11 30 47 61 86 73 205 150 218 141 7 -4 10 -3 6 3 -3 5
11 17 31 25 89 37 170 66 207 73 22 5 47 10 55 12 8 2 38 6 65 9 28 3 51 7 52
8 3 2 215 0 276 -3z m114 -28 c2 -6 -8 -13 -22 -15 -28 -6 -27 -6 -19 15 6 17
36 16 41 0z m879 -1231 c-3 -15 -9 -45 -12 -67 -15 -107 -56 -240 -101 -330
-41 -82 -42 -82 -80 -18 -91 152 -147 217 -196 228 -12 2 -69 7 -125 9 -57 2
-106 7 -110 10 -3 3 9 6 26 6 18 0 32 5 32 10 0 6 6 10 13 10 7 0 18 9 25 21
8 12 19 18 27 15 8 -3 14 -1 12 3 -4 15 46 52 62 46 9 -3 12 -3 8 2 -13 13 96
31 112 18 11 -7 13 -7 8 1 -4 7 1 15 10 19 10 3 19 1 22 -6 2 -8 5 -8 11 0 3
7 20 14 36 16 16 3 40 8 54 12 14 3 32 7 40 8 64 9 106 17 109 21 11 10 21
-11 17 -34z m-1221 -236 c51 -36 75 -46 68 -30 -4 10 0 12 11 8 9 -3 16 -10
16 -14 0 -19 -33 -17 -106 6 -44 13 -90 24 -103 24 -32 0 -20 11 21 19 51 11
61 10 93 -13z m-794 -148 c11 -11 19 -17 19 -13 0 4 8 1 18 -7 29 -26 127 -69
188 -83 87 -20 155 -52 161 -75 3 -11 13 -20 22 -21 9 0 25 -2 36 -4 11 -2 88
-10 170 -16 l150 -12 -1 -112 c-2 -101 -5 -119 -32 -181 -17 -38 -33 -81 -37
-95 -6 -25 -8 -26 -58 -17 -143 26 -305 96 -434 187 -128 90 -315 293 -297
322 4 7 3 9 -3 6 -14 -9 -37 19 -27 34 4 7 3 9 -3 6 -9 -6 -50 59 -42 67 2 2
17 6 32 10 22 5 27 4 21 -6 -6 -10 -4 -10 9 0 9 8 28 15 42 16 14 2 29 6 32
10 10 10 14 8 34 -16z m1106 -634 c-3 -3 -12 -4 -19 -1 -8 3 -5 6 6 6 11 1 17
-2 13 -5z m-60 -10 c-3 -3 -12 -4 -19 -1 -8 3 -5 6 6 6 11 1 17 -2 13 -5z"/>
<path d="M1660 3106 c0 -2 8 -10 18 -17 15 -13 16 -12 3 4 -13 16 -21 21 -21
13z"/>
<path d="M1216 2838 c3 -5 10 -6 15 -3 13 9 11 12 -6 12 -8 0 -12 -4 -9 -9z"/>
<path d="M3037 1870 c15 -16 50 -23 57 -12 3 5 -5 8 -17 7 -12 -1 -29 3 -37 8
-12 9 -13 9 -3 -3z"/>
<path d="M2833 1805 c0 -8 4 -12 9 -9 5 3 6 10 3 15 -9 13 -12 11 -12 -6z"/>
<path d="M2715 1780 c3 -5 8 -10 11 -10 2 0 4 5 4 10 0 6 -5 10 -11 10 -5 0
-7 -4 -4 -10z"/>
<path d="M2751 1773 c7 -12 15 -20 18 -17 3 2 -3 12 -13 22 -17 16 -18 16 -5
-5z"/>
<path d="M1077 1495 c-4 -8 -3 -16 1 -19 4 -3 9 4 9 15 2 23 -3 25 -10 4z"/>
<path d="M1016 1458 c3 -5 10 -6 15 -3 13 9 11 12 -6 12 -8 0 -12 -4 -9 -9z"/>
<path d="M1130 1446 c0 -2 7 -7 16 -10 8 -3 12 -2 9 4 -6 10 -25 14 -25 6z"/>
<path d="M2716 278 c3 -5 10 -6 15 -3 13 9 11 12 -6 12 -8 0 -12 -4 -9 -9z"/>
<path d="M2650 276 c0 -2 8 -10 18 -17 15 -13 16 -12 3 4 -13 16 -21 21 -21
13z"/>
<path d="M1695 161 c-3 -5 -2 -12 3 -15 5 -3 9 1 9 9 0 17 -3 19 -12 6z"/>
<path d="M1770 166 c0 -2 7 -7 16 -10 8 -3 12 -2 9 4 -6 10 -25 14 -25 6z"/>
<path d="M1870 156 c0 -2 8 -10 18 -17 15 -13 16 -12 3 4 -13 16 -21 21 -21
13z"/>
</g>
</svg>
