<svg width="0" height="0" version="1.1" xmlns="http://www.w3.org/2000/svg" xmlns:xlink="http://www.w3.org/1999/xlink">
<!--!SVG Symbol Defs via IcoMoon-->
    <defs>
    <symbol id="icon--x" viewBox="0 0 32 32">
        <title>Twitter / X</title>
        <path d="M24.325 3h4.411l-9.636 11.013 11.336 14.987h-8.876l-6.952-9.089-7.955 9.089h-4.413l10.307-11.78-10.875-14.22h9.101l6.284 8.308zM22.777 26.36h2.444l-15.776-20.859h-2.623z"></path>
    </symbol>
    <symbol id="icon--linkedin2" viewBox="0 0 1024 1024">
        <title>linkedin2</title>
        <path class="path1" d="M384 384h177.106v90.782h2.532c24.64-44.194 84.958-90.782 174.842-90.782 186.946 0 221.52 116.376 221.52 267.734v308.266h-184.61v-273.278c0-65.184-1.334-149.026-96.028-149.026-96.148 0-110.82 70.986-110.82 144.292v278.012h-184.542v-576z"></path>
        <path class="path2" d="M64 384h192v576h-192v-576z"></path>
        <path class="path3" d="M256 224c0 53.019-42.981 96-96 96s-96-42.981-96-96c0-53.019 42.981-96 96-96s96 42.981 96 96z"></path>
    </symbol>
    <symbol id="icon--codepen" viewBox="0 0 1024 1024">
        <title>codepen</title>
        <path class="path1" d="M945.75 368.042l-448-298.666c-10.748-7.166-24.752-7.166-35.5 0l-448 298.666c-8.902 5.934-14.25 15.926-14.25 26.624v298.666c0 10.7 5.348 20.692 14.25 26.624l448 298.666c5.374 3.584 11.562 5.376 17.75 5.376s12.376-1.792 17.75-5.376l448-298.666c8.902-5.934 14.25-15.926 14.25-26.624v-298.666c0-10.698-5.348-20.69-14.25-26.624zM480 654.876l-166.312-110.876 166.312-110.874 166.312 110.874-166.312 110.876zM512 377.542v-221.75l358.31 238.876-166.31 110.874-192-128zM448 377.542l-192 128-166.312-110.874 358.312-238.876v221.75zM198.312 544l-134.312 89.542v-179.082l134.312 89.54zM256 582.458l192 128v221.748l-358.312-238.872 166.312-110.876zM512 710.458l192-128 166.312 110.876-358.312 238.874v-221.75zM761.688 544l134.312-89.54v179.084l-134.312-89.544z"></path>
    </symbol>
    <symbol id="icon--github" viewBox="0 0 32 32">
        <title>github</title>
        <path d="M16 0.395c-8.836 0-16 7.163-16 16 0 7.069 4.585 13.067 10.942 15.182 0.8 0.148 1.094-0.347 1.094-0.77 0-0.381-0.015-1.642-0.022-2.979-4.452 0.968-5.391-1.888-5.391-1.888-0.728-1.849-1.776-2.341-1.776-2.341-1.452-0.993 0.11-0.973 0.11-0.973 1.606 0.113 2.452 1.649 2.452 1.649 1.427 2.446 3.743 1.739 4.656 1.33 0.143-1.034 0.558-1.74 1.016-2.14-3.554-0.404-7.29-1.777-7.29-7.907 0-1.747 0.625-3.174 1.649-4.295-0.166-0.403-0.714-2.030 0.155-4.234 0 0 1.344-0.43 4.401 1.64 1.276-0.355 2.645-0.532 4.005-0.539 1.359 0.006 2.729 0.184 4.008 0.539 3.054-2.070 4.395-1.64 4.395-1.64 0.871 2.204 0.323 3.831 0.157 4.234 1.026 1.12 1.647 2.548 1.647 4.295 0 6.145-3.743 7.498-7.306 7.895 0.574 0.497 1.085 1.47 1.085 2.963 0 2.141-0.019 3.864-0.019 4.391 0 0.426 0.288 0.925 1.099 0.768 6.354-2.118 10.933-8.113 10.933-15.18 0-8.837-7.164-16-16-16z"></path>
    </symbol>
    <symbol id="icon--mastodon" viewBox="0 0 32 32">
        <title>Mastodon</title>
        <path d="M30.924 10.505c0-6.941-4.548-8.976-4.548-8.976-2.293-1.053-6.232-1.496-10.321-1.529h-0.101c-4.091 0.033-8.027 0.476-10.32 1.529 0 0-4.548 2.035-4.548 8.976 0 1.589-0.031 3.491 0.020 5.505 0.165 6.789 1.245 13.479 7.521 15.14 2.893 0.765 5.379 0.927 7.38 0.816 3.629-0.2 5.667-1.296 5.667-1.296l-0.12-2.633c0 0-2.593 0.817-5.505 0.719-2.887-0.099-5.932-0.311-6.399-3.855-0.041-0.29-0.064-0.626-0.064-0.967 0-0.009 0-0.018 0-0.028v0.001c0 0 2.833 0.693 6.423 0.857 2.195 0.1 4.253-0.129 6.344-0.377 4.009-0.479 7.5-2.949 7.939-5.207 0.689-3.553 0.633-8.676 0.633-8.676zM25.559 19.451h-3.329v-8.159c0-1.72-0.724-2.592-2.171-2.592-1.6 0-2.403 1.035-2.403 3.083v4.465h-3.311v-4.467c0-2.048-0.803-3.083-2.403-3.083-1.447 0-2.171 0.873-2.171 2.592v8.159h-3.329v-8.404c0-1.719 0.437-3.084 1.316-4.093 0.907-1.011 2.092-1.528 3.565-1.528 1.704 0 2.995 0.655 3.848 1.965l0.828 1.391 0.829-1.391c0.853-1.311 2.144-1.965 3.848-1.965 1.472 0 2.659 0.517 3.565 1.528 0.877 1.009 1.315 2.375 1.315 4.093z"></path>
    </symbol>
    </defs>
</svg>
