<?xml version="1.0" encoding="UTF-8" standalone="no"?><svg xmlns="http://www.w3.org/2000/svg" stroke-linecap="square" height="100%" width="100%" version="1.1" stroke-miterlimit="10" preserveAspectRatio="xMinYMin meet" xmlns:xlink="http://www.w3.org/1999/xlink" viewBox="0.0 0.0 283.0 492.0" fill="none"><title>Area consider relocating in UK</title><clipPath id="p.0"><path d="m0 0h283v492h-283v-492z"/></clipPath><g clip-path="url(#p.0)"> <path d="m0 0h283.56v492.47h-283.56z"/><path d="m32.703 487.06l20.806 3.8714 10.163-14.514 21.289-2.9029 15 7.2572 10.646-22.743 17.42-3.3858 28.066 7.2572 4.8373-6.7743 16.937-7.2572 18.869 6.7743 20.808-6.2913 14.031 4.8399 23.226-10.646 1.9344-5.3228 14.034-7.2572v-9.1942l-32.42-4.8399 15.969-7.2572 0.48294-10.16 21.774-16.937 4.8399-25.646-10.646-16.934-28.066-4.3543-9.1942 10.643-9.1916-5.8058 6.2887-10.646 3.8714-8.7087-6.2913-12.58-14.031-9.1942-15-3.3858 20.806 1.9344 7.7428 3.3858-12.58-23.226 4.8373-6.7743-15.966-16.934-18.388-10.646-15.483-33.386-1.937-21.291-18.386-19.837-20.323-9.1942-29.031 3.3858 24.677-12.58 11.612-4.3543-9.6772-7.2572-15.483 3.3858 24.677-11.612 13.549-24.68 3.3858-16.934 11.131-14.031-6.2913-12.58-30.483-1.4541-18.871-3.8688-27.097 16.451 14.517-21.774-15.486-0.48556 30-27.094 11.129-22.26-21.289 0.9685-26.614 8.7087-18.386-8.7087-3.3885 24.194-8.7087-0.48556 6.2913 24.194-7.2598-4.3543-12.58 7.2572 5.3228 18.388-7.7428-2.4199 6.7743 18.386-12.58-2.9029-8.2257-24.194-12.097 7.7428v11.614l16.451 14.031 15.483 0.96851-6.2887 21.774-12.097 5.8058 2.4199 14.031 10.646 7.7428 23.709-27.58-14.517 27.58 0.48557 14.031-8.7113 43.549 9.6772 1.4514 2.9055-25.646 11.129-2.9029 9.1916 10.163 6.7743 8.2257-8.7087 8.2257-11.129 23.226 8.7087 16.451 2.4199-15 17.903 14.514 0.9685-11.612 14.032 4.3543 10.646-12.097 19.837 3.8714-12.094 2.9029-9.6772 20.323 15.966 25.646 9.1942-7.7428 0.9685 14.517-7.2598 2.9029 5.3228 11.129-5.8058 7.2598 1.4514 9.1916 8.7087 5.8084-11.129-5.3228-3.3858 6.2887-21.774-2.9029-7.2572 4.3543-9.6798-9.6772-7.2572 1.4514-3.3858 7.7428 13.549 7.7428-15.969 16.934 11.129 0.96851 8.7087-4.8399 5.3228 20.323-7.2572 14.031-20.806 12.097-16.451 7.2598 7.7402 3.8688-3.8714 6.2914 8.7113 4.8399 8.7087-2.4199 10.646-5.8058 11.129 6.2887-8.2257 3.8714 10.163 2.42 5.8058-1.4514 10.646 9.6772 24.192-11.129 12.583-9.6772-11.614 16.934-9.6772 6.7743v6.2914l-31.451-0.48557-8.2257 3.3885-2.42 8.7086-8.2257-0.96851-3.8714 17.42-10.643 7.2572-14.034 17.42z" stroke="#eee" stroke-width="2"/><path d="m76.735 254.31l-6.7743 1.4514-0.96588 8.2257-5.3228 2.9029-1.937 7.7428 7.2598-0.48557 8.2257-8.2257 0.48294-5.8058z" stroke="#eee" stroke-width="2"/><path d="m177.74 453.07l7.3806 1.8137 0.60368 3.1443-5.4436 4.1129-4.2336-2.5407-5.0787-1.21 2.7822-3.5066h3.3858z" stroke="#eee" stroke-width="2"/><path d="m134.8 393.07c0-29.823 24.177-54 54-54 14.322 0 28.057 5.6893 38.184 15.816s15.816 23.862 15.816 38.184c0 29.823-24.177 54-54 54s-54-24.177-54-54z" fill="#53c1be"/></g></svg>
