<?xml version="1.0" encoding="utf-8"?>
<!-- Generator: Adobe Illustrator 24.3.0, SVG Export Plug-In . SVG Version: 6.00 Build 0)  -->
<svg version="1.1" id="Warstwa_1" xmlns="http://www.w3.org/2000/svg" xmlns:xlink="http://www.w3.org/1999/xlink" x="0px" y="0px"
	 viewBox="0 0 192 108" style="enable-background:new 0 0 192 108;" xml:space="preserve">
<style type="text/css">
	.st0{fill:#020202;}
	.st1{fill:#FFFFFF;}
	.st2{enable-background:new    ;}
	.st3{fill:#020203;}
</style>
<path class="st0" d="M34.2,30.3c-2,1.1-5.5,3.1-8.4,6.8c-1.2,1.5-5.6,7.1-5.6,15.4c0,1.4,0,8.3,4.3,14.6c2.9,4.3,6.9,6.9,8.9,8.1
	c0-1.1,0-2.8,0.1-3.9c-1-0.6-8.5-5.7-9.7-15.5c-0.4-2.9,0.1-6.2,0.1-6.2c0.2-1.7,0.7-2.9,0.8-3.2c0.4-1.2,0.9-2.7,1.8-4.3
	c1.4-2.6,3.1-4.3,4.3-5.4c0,3.1,0,6.2,0,9.3c0,3.2,0,6.3,0,9.3c0.8,0,1.5,0,2.3,0c1.8-1.9,3.6-3.8,5.4-5.7c0,9.1,0,18.7-0.1,27.8
	c0.5,0.2,1,0.3,1.6,0.4c0.8,0.2,1.3,0.3,1.8,0.3c0-11.1-0.1-22.6-0.1-33.8l-2.9,0c-1.6,1.7-3.1,3.4-4.7,5.1
	C34.2,43,34.2,36.7,34.2,30.3z"/>
<path class="st0" d="M22.1,57.1"/>
<path class="st0" d="M48.6,78.2c0-11.2,0-22.7,0-33.9l3.2,0l5.2,5.4c0-6.5,0-12.8,0-19.3c0.6,0.3,1,0.6,1.7,1
	c0.7,0.4,0.9,0.6,1.4,0.9c-0.1,7.7,0,15.4,0,23c-0.9,0-1.8,0-2.7,0c-2-1.9-3.5-3.8-5.5-5.7c0,8.2-0.1,16.3-0.1,24.4
	c1-0.3,11.1-3.4,14.6-14.1c2.9-9.2-1-16.4-1.7-17.6c0.4-1.3,1.1-2.8,1.4-4.1c1.3,1.8,3.3,5,4.3,9.8c1.2,6.3-0.2,11.3-0.7,12.8
	c-2.2,6.4-6.2,10.4-8.7,12.3C56.3,76.8,51.1,77.9,48.6,78.2z"/>
<path class="st1" d="M60.7,32.6"/>
<g class="st2">
	<path class="st3" d="M97.4,38.2V54h-2.4v-8.8l-5.4,7.6h0l-5.2-7.2V54h-2.4V38.2h0L89.6,49L97.4,38.2L97.4,38.2z"/>
	<path class="st3" d="M110.1,45.1V54h-2.4v-1.3c-0.3,0.4-0.8,0.7-1.3,1c-0.5,0.3-1.2,0.5-1.9,0.5c-0.9,0-1.6-0.2-2.3-0.5
		c-0.7-0.4-1.2-0.9-1.6-1.6c-0.4-0.7-0.6-1.5-0.6-2.5c0-1,0.2-1.8,0.6-2.6s0.9-1.3,1.6-1.7c0.7-0.4,1.4-0.6,2.2-0.6
		c1.4,0,2.5,0.5,3.2,1.6l0.2-1.2H110.1z M106.9,51.8c0.4-0.3,0.8-0.8,0.9-1.4v-1.9c-0.2-0.5-0.5-1-1-1.3s-1-0.5-1.7-0.5
		c-0.7,0-1.4,0.3-1.9,0.8c-0.5,0.5-0.8,1.2-0.8,2c0,0.5,0.1,1,0.4,1.4c0.3,0.4,0.6,0.8,1,1s0.9,0.4,1.4,0.4
		C105.9,52.3,106.4,52.1,106.9,51.8z"/>
	<path class="st3" d="M122.8,45.1V54c0,0.8-0.2,1.6-0.7,2.2s-1.1,1.2-1.8,1.6c-0.8,0.4-1.7,0.6-2.7,0.6c-1,0-1.8-0.2-2.4-0.5
		c-0.6-0.3-1.3-0.7-2-1.3l1.4-1.6c0.4,0.4,0.9,0.7,1.4,1c0.5,0.2,1,0.3,1.6,0.3c0.9,0,1.6-0.2,2.1-0.6c0.5-0.4,0.8-1,0.8-1.7v-1.5
		c-0.3,0.5-0.8,0.9-1.4,1.3c-0.6,0.3-1.3,0.5-2.1,0.5c-0.8,0-1.6-0.2-2.2-0.6c-0.7-0.4-1.2-1-1.6-1.7c-0.4-0.7-0.6-1.5-0.6-2.4
		c0-0.9,0.2-1.7,0.6-2.4c0.4-0.7,1-1.3,1.7-1.7c0.7-0.4,1.5-0.6,2.3-0.6c0.7,0,1.4,0.1,2,0.4c0.6,0.3,1.1,0.6,1.4,1l0.2-1H122.8z
		 M119.4,51.8c0.5-0.3,0.8-0.8,1-1.4v-1.9c-0.2-0.6-0.5-1-1-1.3s-1.1-0.5-1.8-0.5c-0.8,0-1.5,0.3-2,0.8c-0.5,0.5-0.8,1.2-0.8,2
		c0,0.5,0.1,1,0.4,1.4c0.3,0.4,0.6,0.8,1,1c0.4,0.3,0.9,0.4,1.4,0.4C118.3,52.3,118.9,52.1,119.4,51.8z"/>
	<path class="st3" d="M135,45.1V54h-2.4v-1.3c-0.3,0.4-0.8,0.7-1.3,1c-0.5,0.3-1.2,0.5-1.9,0.5c-0.9,0-1.6-0.2-2.3-0.5
		c-0.7-0.4-1.2-0.9-1.6-1.6s-0.6-1.5-0.6-2.5c0-1,0.2-1.8,0.6-2.6c0.4-0.7,0.9-1.3,1.6-1.7c0.7-0.4,1.4-0.6,2.2-0.6
		c1.4,0,2.5,0.5,3.2,1.6l0.2-1.2H135z M131.8,51.8c0.4-0.3,0.8-0.8,0.9-1.4v-1.9c-0.2-0.5-0.5-1-1-1.3c-0.5-0.3-1-0.5-1.7-0.5
		c-0.7,0-1.4,0.3-1.9,0.8c-0.5,0.5-0.8,1.2-0.8,2c0,0.5,0.1,1,0.4,1.4c0.3,0.4,0.6,0.8,1,1s0.9,0.4,1.4,0.4
		C130.8,52.3,131.3,52.1,131.8,51.8z"/>
	<path class="st3" d="M140.8,52.1h4.7V54H137l4.8-7h-2.6c-0.5,0-0.9-0.2-1.2-0.5c-0.3-0.3-0.5-0.7-0.5-1.3v-1h1.8v0.3
		c0,0.2,0.1,0.4,0.2,0.5c0.1,0.1,0.3,0.1,0.6,0.1h5.7L140.8,52.1z"/>
	<path class="st3" d="M156.8,45.1l-5.7,13.1h-2.3l2.1-4.6l-4.1-8.5h2.6L152,51l2.6-5.9H156.8z"/>
	<path class="st3" d="M166.3,45.5c0.6,0.5,0.8,1.1,0.9,1.9V54h-2.4v-5.8c0-0.5-0.2-0.8-0.4-1.1s-0.6-0.4-1.1-0.4
		c-0.7,0-1.3,0.3-1.8,0.9c-0.5,0.6-0.7,1.4-0.7,2.4V54h-2.4v-8.9h2.1l0.2,1.6c0.3-0.6,0.8-1.1,1.4-1.4c0.6-0.3,1.3-0.5,2.1-0.5
		C165.1,44.7,165.8,45,166.3,45.5z"/>
</g>
<g class="st2">
	<path class="st3" d="M94.7,59.5v15.1h-0.1L84.1,64.4l0.1,9.7h-2.4V59H82l10.5,10.3l0-9.8H94.7z"/>
	<path class="st3" d="M98.3,61.8c0.3-0.2,0.6-0.3,0.9-0.3c0.3,0,0.6,0.1,0.9,0.3s0.4,0.5,0.4,0.8c0,0.3-0.1,0.6-0.4,0.8
		s-0.5,0.3-0.9,0.3c-0.3,0-0.6-0.1-0.9-0.3s-0.4-0.5-0.4-0.8C97.9,62.3,98,62,98.3,61.8z M100.3,65.6v8.5H98v-8.5H100.3z"/>
	<path class="st3" d="M103.8,73.9c-0.6-0.2-1.1-0.6-1.4-1l0.9-1.3c0.7,0.7,1.4,1,2.2,1c0.4,0,0.7-0.1,1-0.2c0.3-0.2,0.4-0.4,0.4-0.7
		c0-0.3-0.1-0.6-0.4-0.7c-0.3-0.2-0.6-0.3-0.9-0.4c-0.3-0.1-0.5-0.2-0.6-0.2c-0.7-0.2-1.3-0.6-1.6-1c-0.4-0.4-0.5-0.9-0.5-1.5
		c0-0.5,0.1-0.9,0.3-1.3c0.2-0.4,0.6-0.7,1.1-1c0.5-0.3,1.1-0.4,1.7-0.4c0.6,0,1.2,0.1,1.7,0.2c0.5,0.1,0.9,0.4,1.3,0.7l-0.9,1.3
		c-0.2-0.2-0.5-0.4-0.9-0.5c-0.3-0.1-0.6-0.2-0.9-0.2c-0.3,0-0.6,0.1-0.9,0.2s-0.3,0.4-0.3,0.6c0,0.3,0.1,0.5,0.3,0.7
		c0.2,0.2,0.6,0.3,1.2,0.5c0.2,0.1,0.4,0.1,0.4,0.1c0.7,0.2,1.2,0.5,1.6,0.9s0.6,0.9,0.6,1.5c0,0.8-0.3,1.5-0.9,2.1
		c-0.6,0.6-1.4,0.8-2.5,0.8C105,74.3,104.4,74.1,103.8,73.9z"/>
	<path class="st3" d="M113.9,72.2h4.5v1.8h-8.1l4.6-6.6h-2.5c-0.5,0-0.8-0.2-1.2-0.5s-0.5-0.7-0.5-1.2v-1h1.7v0.3
		c0,0.2,0,0.4,0.2,0.4c0.1,0.1,0.3,0.1,0.5,0.1h5.4L113.9,72.2z"/>
	<path class="st3" d="M129.7,65.6v8.5h-2.2v-1.2c-0.3,0.4-0.7,0.7-1.2,1c-0.5,0.3-1.1,0.5-1.8,0.5c-0.8,0-1.5-0.2-2.2-0.5
		c-0.6-0.3-1.1-0.8-1.5-1.5c-0.4-0.7-0.6-1.5-0.6-2.4c0-0.9,0.2-1.7,0.6-2.4c0.4-0.7,0.9-1.2,1.6-1.6c0.6-0.4,1.4-0.6,2.1-0.6
		c1.4,0,2.4,0.5,3.1,1.5l0.2-1.1H129.7z M126.5,72c0.4-0.3,0.7-0.8,0.9-1.3v-1.8c-0.2-0.5-0.5-0.9-0.9-1.3c-0.5-0.3-1-0.5-1.6-0.5
		c-0.7,0-1.3,0.3-1.8,0.8s-0.7,1.1-0.7,1.9c0,0.5,0.1,1,0.4,1.4c0.2,0.4,0.6,0.7,1,1c0.4,0.2,0.8,0.4,1.3,0.4
		C125.6,72.5,126.1,72.3,126.5,72z"/>
	<path class="st3" d="M131.9,72c0.2-0.2,0.5-0.4,0.8-0.4c0.3,0,0.6,0.1,0.8,0.4c0.2,0.2,0.4,0.5,0.4,0.9c0,0.3-0.1,0.6-0.4,0.9
		c-0.2,0.2-0.5,0.3-0.8,0.3c-0.3,0-0.6-0.1-0.8-0.3c-0.2-0.2-0.4-0.5-0.4-0.9C131.5,72.5,131.6,72.2,131.9,72z"/>
</g>
</svg>
