<?xml version="1.0" standalone="no"?>
<!DOCTYPE svg PUBLIC "-//W3C//DTD SVG 20010904//EN"
 "http://www.w3.org/TR/2001/REC-SVG-20010904/DTD/svg10.dtd">
<svg version="1.0" xmlns="http://www.w3.org/2000/svg"
 width="256.000000pt" height="256.000000pt" viewBox="0 0 256.000000 256.000000"
 preserveAspectRatio="xMidYMid meet">
<metadata>
Created by potrace 1.14, written by Peter Selinger 2001-2017
</metadata>
<g transform="translate(0.000000,256.000000) scale(0.100000,-0.100000)"
fill="#000000" stroke="none">
<path d="M422 2108 c-5 -7 -13 -38 -17 -68 -4 -30 -12 -66 -17 -79 -10 -28 3
-41 40 -41 21 0 22 3 22 100 0 96 -6 115 -28 88z"/>
<path d="M818 2108 c-21 -17 -38 -80 -27 -101 6 -9 5 -26 -1 -43 -13 -34 -1
-44 53 -44 36 0 37 1 37 34 0 19 -4 38 -10 41 -5 3 -10 26 -10 50 0 71 -11 87
-42 63z"/>
<path d="M546 2052 c-4 -18 -5 -36 -2 -39 11 -12 17 5 14 39 l-3 33 -9 -33z"/>
<path d="M1902 2058 c-8 -8 -12 -59 -12 -163 0 -104 4 -155 12 -163 9 -9 71
-12 220 -12 191 0 208 1 217 18 10 19 6 306 -5 323 -8 14 -418 11 -432 -3z
m395 -164 l-1 -135 -180 3 -179 3 -3 133 -2 132 182 0 183 0 0 -136z"/>
<path d="M2030 1893 c-57 -29 -70 -40 -70 -60 0 -17 41 -28 50 -13 5 8 13 9
26 3 23 -11 114 -5 114 8 0 5 12 9 26 9 19 0 25 4 20 15 -3 9 0 15 9 15 8 0
15 -7 15 -16 0 -12 6 -15 23 -10 12 3 25 6 30 6 4 0 7 11 7 24 0 23 -2 24 -77
24 -48 0 -79 4 -81 11 -6 18 -34 13 -92 -16z"/>
<path d="M520 1955 c0 -26 3 -33 15 -29 17 7 17 9 9 42 -9 34 -24 26 -24 -13z"/>
<path d="M1727 1920 c-24 -19 -40 -20 -322 -20 -229 0 -296 -3 -293 -12 8 -22
51 -26 326 -27 l273 -1 24 25 c14 13 25 31 25 40 0 19 -2 19 -33 -5z"/>
<path d="M1410 1814 c-129 -25 -247 -83 -340 -167 l-35 -32 -500 0 -500 0 -3
-556 -2 -556 82 -6 c46 -4 205 -7 353 -7 361 0 462 -7 468 -31 3 -11 0 -20 -6
-20 -7 -1 -79 -5 -162 -9 -147 -6 -145 -6 100 -9 138 -1 378 -4 535 -7 370 -7
1084 5 1050 18 -14 5 -61 7 -107 3 -77 -6 -233 3 -205 12 6 3 12 11 12 18 0
11 32 15 148 19 81 2 166 7 190 11 l42 7 -2 555 -3 555 -45 4 c-25 2 -82 5
-128 7 -82 3 -84 3 -97 -24 -16 -30 -33 -39 -75 -39 -34 0 -70 34 -70 66 0 13
-4 26 -10 29 -5 3 -10 -1 -10 -9 0 -12 -11 -16 -46 -16 -40 0 -55 7 -108 46
-62 48 -155 95 -236 121 -46 14 -244 26 -290 17z m-253 -471 c-6 -16 -17 -39
-24 -53 -12 -24 -13 -24 -13 -3 0 23 30 83 42 83 4 0 2 -12 -5 -27z m723 -286
c0 -22 -43 -95 -64 -109 -25 -17 -25 13 1 70 19 41 34 61 46 62 11 0 17 -8 17
-23z"/>
</g>
</svg>
