<?xml version="1.0" encoding="utf-8"?>
<!-- Generator: Adobe Illustrator 28.2.0, SVG Export Plug-In . SVG Version: 6.00 Build 0)  -->
<svg version="1.1" id="Logo" xmlns="http://www.w3.org/2000/svg" xmlns:xlink="http://www.w3.org/1999/xlink" x="0px" y="0px"
	 viewBox="0 0 5042 1200" style="enable-background:new 0 0 5042 1200;" xml:space="preserve">
<style type="text/css">
	.st0{fill:#D2FF5A;}
	.st1{fill:#FFFFFF;}
</style>
<g>
	<g>
		<path class="st0" d="M0,1072.5L300,1200V831c0-46.5,28.5-84,75-84s75,37.5,75,84v369l300-127.5V804c0-199.5-154.5-354-354-354
			c-31.5,0-63,5.2-96,15V127.5L0,0V1072.5z"/>
	</g>
	<g>
		<path class="st1" d="M1110,344.1h96v237.1l19.6-77.7c19.6-20.9,45.7-32,82.9-32c81,0,123.4,54.2,123.4,150.9v201.8h-96V643.2
			c0-59.4-17-82.9-60.7-82.9c-44.4,0-69.2,32-69.2,89.5v174.4h-96V344.1z"/>
		<path class="st1" d="M1486.6,654.3c0-105.1,71.2-182.9,171.1-182.9c45.7,0,81,17,105.8,43.1v-30h96v185.5l51.6,154.1h-101.2
			l-38.5-122.1l-5.9,88.2c-23.5,26.8-57.5,43.8-107.1,43.8C1558.5,833.9,1486.6,757.4,1486.6,654.3z M1766.8,654.3
			c0-60.7-43.8-96-89.5-96c-49,0-90.8,36.6-90.8,96c0,57.5,41.8,92.7,90.8,92.7C1723,747,1766.8,713,1766.8,654.3z"/>
		<path class="st1" d="M1954.3,699.3V484.5h96v203.1c0,43.1,17.6,64,54.2,64c46.4,0,69.2-39.8,69.2-95.3V484.5h96v222.7l38.5,116.9
			h-101.2l-33.3-107.8v73.1c-18.3,24.8-44.4,44.4-93.4,44.4C2002.7,833.9,1954.3,782.9,1954.3,699.3z"/>
		<path class="st1" d="M2514.1,331c21.6,0,42.4,1.3,62.7,6.5v80.3c-14.4-3.3-29.4-4.6-43.8-4.6c-24.2,0-37.9,14.4-37.9,42.4v28.7
			h92.7v80.3h-92.7v259.3h-96V564.8h-62v-80.3h62v-32C2399.2,381.9,2444.9,331,2514.1,331z"/>
		<path class="st1" d="M2622.5,655.6c0-107.1,72.5-184.2,174.4-184.2c97.3,0,161.3,71.8,161.3,175.7c0,11.8-0.7,21.6-2.6,35.9
			h-231.2c7.8,54.2,37.9,72.5,79.7,72.5c40.5,0,65.3-16.3,82.3-52.9l67.3,62c-34.6,46.4-88.2,69.2-152.8,69.2
			C2689.1,833.9,2622.5,759.4,2622.5,655.6z M2856.3,617.7v-1.3c0-38.5-20.9-66.6-62-66.6c-35.3,0-61.4,20.2-69.2,67.9H2856.3z"/>
		<path class="st1" d="M3118,798.7v25.4h-109.7V714.3H3118V798.7"/>
		<path class="st1" d="M3158,881.7l80.3-50.9c13.7,41.1,47,64,94,64c56.8,0,92.1-34,92.1-87.5V703.4l-24.2,90.8
			c-15.7,10.4-45.7,20.2-75.8,20.2c-99.9,0-166.5-72.5-166.5-169.8c0-99.3,66.6-173.1,166.5-173.1c42.4,0,75.8,15,99.9,39.2v-26.1
			h96v329.1c0,98.6-73.1,160.7-189.4,160.7C3244.9,974.5,3183.5,941.2,3158,881.7z M3427.7,644.5c0-56.8-38.5-86.2-84.2-86.2
			c-49,0-85.6,32.7-85.6,86.2c0,51.6,36.6,82.9,85.6,82.9C3389.2,727.4,3427.7,695.4,3427.7,644.5z"/>
		<path class="st1" d="M3593.5,484.5h96v109.7l19.6-90.8c9.8-11.1,32.7-28.7,62.7-28.7c15,0,24.8,1.3,37.9,6.5v93.4
			c-17.6-5.9-30-8.5-49-8.5c-44.4,0-71.2,37.2-71.2,94.7v163.3h-96V484.5z"/>
		<path class="st1" d="M3838.4,653c0-105.8,79-181.6,187.4-181.6s187.4,75.8,187.4,181.6c0,105.1-79,180.9-187.4,180.9
			S3838.4,758.1,3838.4,653z M4113.4,653c0-58.1-37.9-93.4-87.5-93.4s-87.5,35.3-87.5,93.4c0,57.5,37.9,92.7,87.5,92.7
			S4113.4,710.4,4113.4,653z"/>
		<path class="st1" d="M4264.9,699.3V484.5h96v203.1c0,43.1,17.6,64,54.2,64c46.4,0,69.2-39.8,69.2-95.3V484.5h96v222.7l38.5,116.9
			h-101.2l-33.3-107.8v73.1c-18.3,24.8-44.4,44.4-93.4,44.4C4313.2,833.9,4264.9,782.9,4264.9,699.3z"/>
		<path class="st1" d="M4669.1,484.5h96v30c24.8-26.1,60.1-43.1,105.8-43.1c99.9,0,171.1,77.7,171.1,182.9
			c0,103.2-71.8,179.6-171.8,179.6c-33.3,0-58.1-6.5-80.3-20.9l-24.8-90.1v241.6h-96V484.5z M4942.1,654.3c0-59.4-41.8-96-90.8-96
			c-45.7,0-89.5,35.3-89.5,96c0,58.8,43.8,92.7,89.5,92.7C4900.3,747,4942.1,711.7,4942.1,654.3z"/>
	</g>
</g>
</svg>
