<?xml version="1.0" encoding="utf-8"?>
<!-- Generator: Adobe Illustrator 28.2.0, SVG Export Plug-In . SVG Version: 6.00 Build 0)  -->
<svg version="1.1" id="Logo" xmlns="http://www.w3.org/2000/svg" xmlns:xlink="http://www.w3.org/1999/xlink" x="0px" y="0px"
	 viewBox="0 0 2556 1200" style="enable-background:new 0 0 2556 1200;" xml:space="preserve">
<style type="text/css">
	.st0{fill:#002887;}
	.st1{fill:#001E55;}
</style>
<g>
	<path class="st0" d="M0,1072.5L300,1200V831c0-46.5,28.5-84,75-84s75,37.5,75,84v369l300-127.5V804c0-199.5-154.5-354-354-354
		c-31.5,0-63,5.2-96,15V127.5L0,0V1072.5z"/>
	<g>
		<path class="st1" d="M1050,208h72v177.8l14.7-58.3c14.7-15.7,34.3-24,62.2-24c60.7,0,92.6,40.7,92.6,113.1V568h-72V432.3
			c0-44.6-12.7-62.2-45.6-62.2c-33.3,0-51.9,24-51.9,67.1V568h-72V208z"/>
		<path class="st1" d="M1332.5,440.7c0-78.9,53.4-137.1,128.3-137.1c34.3,0,60.7,12.7,79.3,32.3v-22.5h72v139.1l38.7,115.6h-75.9
			l-28.9-91.6l-4.4,66.1c-17.6,20.1-43.1,32.8-80.3,32.8C1386.3,575.3,1332.5,518,1332.5,440.7z M1542.6,440.7
			c0-45.6-32.8-72-67.1-72c-36.7,0-68.1,27.4-68.1,72c0,43.1,31.3,69.6,68.1,69.6C1509.8,510.2,1542.6,484.7,1542.6,440.7z"/>
		<path class="st1" d="M1683.3,474.4V313.3h72v152.3c0,32.3,13.2,48,40.7,48c34.8,0,51.9-29.9,51.9-71.5V313.3h72v167l28.9,87.7
			h-75.9l-25-80.8V542c-13.7,18.6-33.3,33.3-70,33.3C1719.5,575.3,1683.3,537.1,1683.3,474.4z"/>
		<path class="st1" d="M2103.1,198.2c16.2,0,31.8,1,47,4.9v60.2c-10.8-2.4-22-3.4-32.8-3.4c-18.1,0-28.4,10.8-28.4,31.8v21.6h69.6
			v60.2h-69.6V568h-72V373.6h-46.5v-60.2h46.5v-24C2016.9,236.4,2051.2,198.2,2103.1,198.2z"/>
		<path class="st1" d="M2184.4,441.6c0-80.3,54.4-138.1,130.8-138.1c73,0,121,53.9,121,131.8c0,8.8-0.5,16.2-2,26.9h-173.4
			c5.9,40.7,28.4,54.4,59.8,54.4c30.4,0,49-12.2,61.7-39.7l50.4,46.5c-26,34.8-66.1,51.9-114.6,51.9
			C2234.3,575.3,2184.4,519.5,2184.4,441.6z M2359.7,413.2v-1c0-28.9-15.7-50-46.5-50c-26.4,0-46,15.2-51.9,50.9H2359.7z"/>
		<path class="st1" d="M2556,549v19h-82.3v-82.3h82.3V549"/>
		<path class="st1" d="M1036,1010.4l60.2-38.2c10.3,30.9,35.3,48,70.5,48c42.6,0,69.1-25.5,69.1-65.6v-77.9l-18.1,68.1
			c-11.8,7.8-34.3,15.2-56.8,15.2c-74.9,0-124.9-54.4-124.9-127.3c0-74.4,50-129.8,124.9-129.8c31.8,0,56.8,11.3,74.9,29.4v-19.6h72
			v246.9c0,74-54.9,120.5-142,120.5C1101.1,1080,1055.1,1055,1036,1010.4z M1238.3,832.5c0-42.6-28.9-64.7-63.2-64.7
			c-36.7,0-64.2,24.5-64.2,64.7c0,38.7,27.4,62.2,64.2,62.2C1209.4,894.7,1238.3,870.7,1238.3,832.5z"/>
		<path class="st1" d="M1362.6,712.5h72v82.3l14.7-68.1c7.3-8.3,24.5-21.6,47-21.6c11.3,0,18.6,1,28.4,4.9v70
			c-13.2-4.4-22.5-6.4-36.7-6.4c-33.3,0-53.4,27.9-53.4,71v122.4h-72V712.5z"/>
		<path class="st1" d="M1546.3,838.9c0-79.3,59.3-136.2,140.6-136.2s140.6,56.8,140.6,136.2c0,78.9-59.3,135.7-140.6,135.7
			S1546.3,917.7,1546.3,838.9z M1752.5,838.9c0-43.6-28.4-70-65.6-70s-65.6,26.4-65.6,70c0,43.1,28.4,69.6,65.6,69.6
			S1752.5,882,1752.5,838.9z"/>
		<path class="st1" d="M1866.1,873.6V712.5h72v152.3c0,32.3,13.2,48,40.7,48c34.8,0,51.9-29.9,51.9-71.5V712.5h72v167l28.9,87.7
			h-75.9l-25-80.8v54.9c-13.7,18.6-33.3,33.3-70,33.3C1902.4,974.5,1866.1,936.3,1866.1,873.6z"/>
		<path class="st1" d="M2169.3,712.5h72V735c18.6-19.6,45.1-32.3,79.3-32.3c74.9,0,128.3,58.3,128.3,137.1
			c0,77.4-53.9,134.7-128.8,134.7c-25,0-43.6-4.9-60.2-15.7l-18.6-67.6v181.2h-72V712.5z M2374.1,839.8c0-44.6-31.3-72-68.1-72
			c-34.3,0-67.1,26.4-67.1,72c0,44.1,32.8,69.6,67.1,69.6C2342.7,909.4,2374.1,882.9,2374.1,839.8z"/>
	</g>
</g>
</svg>
