<?xml version="1.0" encoding="UTF-8" standalone="no"?>
<!-- Created with Inkscape (http://www.inkscape.org/) -->

<svg
   width="600"
   height="315"
   viewBox="0 0 158.75 83.34375"
   version="1.1"
   id="svg8"
   inkscape:version="1.3.2 (1:1.3.2+202404261509+091e20ef0f)"
   sodipodi:docname="rethinking builders.svg"
   inkscape:export-filename="../rethinking-builders.png"
   inkscape:export-xdpi="192"
   inkscape:export-ydpi="192"
   xml:space="preserve"
   xmlns:inkscape="http://www.inkscape.org/namespaces/inkscape"
   xmlns:sodipodi="http://sodipodi.sourceforge.net/DTD/sodipodi-0.dtd"
   xmlns="http://www.w3.org/2000/svg"
   xmlns:svg="http://www.w3.org/2000/svg"
   xmlns:rdf="http://www.w3.org/1999/02/22-rdf-syntax-ns#"
   xmlns:cc="http://creativecommons.org/ns#"
   xmlns:dc="http://purl.org/dc/elements/1.1/"><defs
     id="defs2" /><sodipodi:namedview
     id="base"
     pagecolor="#ffffff"
     bordercolor="#666666"
     borderopacity="1.0"
     inkscape:pageopacity="1"
     inkscape:pageshadow="2"
     inkscape:zoom="1.979899"
     inkscape:cx="161.37187"
     inkscape:cy="99.500025"
     inkscape:document-units="mm"
     inkscape:current-layer="layer1"
     showgrid="true"
     units="px"
     inkscape:snap-bbox="true"
     inkscape:bbox-paths="true"
     inkscape:window-width="2560"
     inkscape:window-height="1313"
     inkscape:window-x="0"
     inkscape:window-y="0"
     inkscape:window-maximized="1"
     inkscape:pagecheckerboard="true"
     inkscape:bbox-nodes="true"
     inkscape:snap-bbox-edge-midpoints="true"
     inkscape:showpageshadow="2"
     inkscape:deskcolor="#d1d1d1"
     inkscape:lockguides="true"
     inkscape:export-bgcolor="#ffffffff"><inkscape:grid
       type="xygrid"
       id="grid838"
       originx="0"
       originy="0"
       spacingy="1"
       spacingx="1"
       units="px"
       visible="true" /></sodipodi:namedview><metadata
     id="metadata5"><rdf:RDF><cc:Work
         rdf:about=""><dc:format>image/svg+xml</dc:format><dc:type
           rdf:resource="http://purl.org/dc/dcmitype/StillImage" /></cc:Work></rdf:RDF></metadata><g
     inkscape:label="Layer 1"
     inkscape:groupmode="layer"
     id="layer1"
     transform="translate(0,-213.65623)"><path
       style="fill:#000000;stroke-width:0.037277"
       d="m 27.163058,277.96169 c -0.17282,-0.0711 -0.303007,-0.2486 -0.840855,-1.14643 l -0.592251,-0.98865 -0.150134,-0.0175 c -0.08257,-0.0117 -0.218986,-0.0252 -0.30313,-0.034 l -0.152985,-0.015 -0.788781,0.86901 c -0.852453,0.93916 -0.899833,0.97545 -1.225086,0.93881 -0.176402,-0.02 -0.314643,-0.1019 -0.427009,-0.25305 -0.03714,-0.05 -0.236078,-0.55999 -0.442087,-1.13331 -0.206007,-0.57333 -0.380738,-1.04861 -0.388288,-1.05615 -0.0077,-0.005 -0.139526,-0.0525 -0.293311,-0.10007 l -0.279578,-0.0862 -0.906872,0.6715 c -0.498779,0.36933 -0.948909,0.68779 -1.000291,0.70768 -0.05138,0.02 -0.180275,0.0292 -0.286431,0.0208 -0.247267,-0.0199 -0.430927,-0.15377 -0.510615,-0.37256 -0.04498,-0.12342 -0.358768,-2.10567 -0.358768,-2.26635 0,-0.0347 -0.488607,-0.29709 -0.553198,-0.29709 -0.01826,0 -0.483706,0.21179 -1.034346,0.47063 -0.55064,0.25883 -1.062573,0.47885 -1.137626,0.4889 -0.285043,0.0382 -0.581773,-0.16461 -0.661164,-0.45226 -0.02332,-0.0846 -0.01801,-0.47192 0.01534,-1.12866 0.02795,-0.55008 0.05125,-1.05887 0.05178,-1.13062 8.34e-4,-0.11557 -0.02522,-0.15143 -0.2297,-0.31442 l -0.23064,-0.18394 -1.093972,0.27246 c -1.204407,0.29999 -1.326357,0.31094 -1.551285,0.13943 -0.147965,-0.11291 -0.247412,-0.3041 -0.248731,-0.47832 -5.24e-4,-0.0685 0.119997,-0.61221 0.267803,-1.20792 l 0.268755,-1.08305 -0.183933,-0.23066 c -0.216137,-0.27101 -0.05267,-0.25117 -1.462646,-0.17772 -0.6494895,0.0339 -1.0242195,0.0392 -1.1100105,0.015 -0.288287,-0.0795 -0.491606,-0.37598 -0.45339,-0.66089 0.01004,-0.0745 0.230042,-0.58554 0.488925,-1.13512 0.258884,-0.54955 0.470699,-1.01528 0.470699,-1.03491 0,-0.0777 -0.264738,-0.55575 -0.308005,-0.55615 -0.20062,-0.002 -2.2409109,-0.34043 -2.3304442,-0.38674 -0.1711147,-0.0884 -0.2803124,-0.26646 -0.2978091,-0.48542 -0.00839,-0.10441 0.00113,-0.23174 0.020969,-0.28301 0.019873,-0.0512 0.338036,-0.50063 0.7070202,-0.99866 l 0.6708801,-0.90546 -0.08727,-0.2829 c -0.04802,-0.15561 -0.09339,-0.28898 -0.100842,-0.29645 -0.0075,-0.007 -0.4819823,-0.18142 -1.0544785,-0.38642 -0.5725004,-0.20507 -1.0818067,-0.40332 -1.1317963,-0.44058 -0.1513742,-0.11291 -0.2331765,-0.25084 -0.2530521,-0.42719 -0.036664,-0.32525 -3.544e-4,-0.37261 0.9388149,-1.22506 l 0.8690168,-0.78879 -0.016044,-0.15294 c -0.00882,-0.0841 -0.024136,-0.22056 -0.034041,-0.30315 l -0.018007,-0.1501 -0.988652,-0.59225 c -0.647222,-0.38772 -1.0169805,-0.63197 -1.0706744,-0.70723 -0.1167929,-0.16378 -0.1167929,-0.55084 0,-0.71458 0.053709,-0.0754 0.4234524,-0.31951 1.0706744,-0.70724 l 0.988652,-0.59223 0.018007,-0.1501 c 0.00992,-0.0826 0.02522,-0.21899 0.034061,-0.30315 l 0.016044,-0.15293 -0.8690186,-0.78878 c -0.9391663,-0.85247 -0.9754752,-0.89985 -0.9388149,-1.22508 0.019863,-0.17637 0.101681,-0.31444 0.2530529,-0.42719 0.049992,-0.0372 0.5592949,-0.2355 1.1317901,-0.44057 0.5724973,-0.20507 1.0470117,-0.37897 1.0544797,-0.38643 0.0075,-0.007 0.05283,-0.14092 0.100843,-0.29646 l 0.08729,-0.28286 -0.6708801,-0.90548 c -0.3689841,-0.498 -0.6871449,-0.94742 -0.7070203,-0.99867 -0.019873,-0.0512 -0.029318,-0.1787 -0.020969,-0.283 0.0175,-0.21895 0.1266944,-0.39693 0.297809,-0.48543 0.089545,-0.0464 2.1298234,-0.3849 2.3304454,-0.38675 0.04326,-3.9e-4 0.308004,-0.47842 0.308004,-0.55614 0,-0.0197 -0.211816,-0.48536 -0.470699,-1.03492 -0.258883,-0.54954 -0.478901,-1.06033 -0.488925,-1.13508 -0.03822,-0.28492 0.165103,-0.5813 0.453391,-0.66089 0.08579,-0.0237 0.460517,-0.0195 1.1100085,0.015 1.409968,0.0735 1.246509,0.0932 1.462646,-0.17772 l 0.183931,-0.23062 -0.268752,-1.08308 c -0.147815,-0.59567 -0.268327,-1.13923 -0.267804,-1.20789 0.0013,-0.17422 0.100768,-0.36546 0.248731,-0.47832 0.224927,-0.1715 0.346876,-0.16061 1.551284,0.13943 l 1.093973,0.27248 0.230641,-0.18396 c 0.204473,-0.16311 0.230532,-0.19873 0.229698,-0.31437 -5.19e-4,-0.0719 -0.02382,-0.58056 -0.05178,-1.13064 -0.03337,-0.65674 -0.03864,-1.0443 -0.01534,-1.12865 0.07939,-0.28753 0.37612,-0.49053 0.661163,-0.45229 0.07505,0.01 0.586988,0.23009 1.137627,0.48893 0.550642,0.25884 1.016095,0.47061 1.034345,0.47061 0.06459,0 0.553202,-0.26239 0.553202,-0.29708 0,-0.16061 0.313783,-2.14284 0.358768,-2.26636 0.0797,-0.21878 0.263345,-0.35277 0.510611,-0.37255 0.106155,-0.008 0.235052,8.5e-4 0.286433,0.0208 0.05137,0.02 0.501511,0.33831 1.000291,0.70765 l 0.906871,0.67153 0.27958,-0.0862 c 0.153769,-0.0475 0.285758,-0.0924 0.293308,-0.10007 0.0077,-0.007 0.182282,-0.4828 0.388289,-1.05613 0.206009,-0.57335 0.404947,-1.08332 0.442085,-1.13334 0.112375,-0.15127 0.250603,-0.23314 0.427011,-0.25305 0.325256,-0.0365 0.372636,-3.5e-4 1.225086,0.93882 l 0.788782,0.86903 0.152985,-0.015 c 0.08416,-0.008 0.220556,-0.0238 0.303129,-0.034 l 0.15015,-0.0175 0.592251,-0.98866 c 0.387719,-0.64723 0.631963,-1.017 0.707236,-1.07068 0.163726,-0.11675 0.550839,-0.11675 0.714566,0 0.07528,0.0537 0.319413,0.4233 0.706845,1.07001 l 0.591859,0.98803 0.206444,0.0218 c 0.113542,0.0117 0.249348,0.0284 0.301786,0.0367 0.08359,0.0133 0.192772,-0.0924 0.885859,-0.85606 0.854317,-0.94121 0.901492,-0.97738 1.22682,-0.94071 0.176401,0.0198 0.31464,0.10174 0.427011,0.25304 0.03714,0.05 0.236078,0.56 0.442085,1.13333 0.206007,0.57334 0.379983,1.04784 0.386609,1.05446 0.0068,0.007 0.139343,0.0512 0.294932,0.0996 l 0.282881,0.0872 0.905475,-0.67087 c 0.498012,-0.36899 0.947413,-0.68715 0.998667,-0.70703 0.05125,-0.0198 0.180042,-0.0292 0.286208,-0.0208 0.247266,0.0198 0.43093,0.15377 0.510615,0.37255 0.04498,0.12341 0.358767,2.10567 0.358767,2.26634 0,0.0362 0.489938,0.2971 0.557848,0.2971 0.02081,0 0.486098,-0.21176 1.033978,-0.4706 0.54788,-0.2588 1.057719,-0.47883 1.132979,-0.48891 0.285841,-0.0384 0.582105,0.16445 0.661818,0.45327 0.02368,0.0859 0.0185,0.46051 -0.01534,1.10999 -0.0734,1.40756 -0.09198,1.24767 0.169063,1.45579 0.122131,0.0974 0.24507,0.17715 0.273197,0.17715 0.0281,0 0.514354,-0.11741 1.080507,-0.26096 0.566153,-0.14343 1.090563,-0.26092 1.165351,-0.26092 0.303048,0 0.569931,0.23829 0.603842,0.53916 0.01418,0.12608 -0.04656,0.42792 -0.253769,1.2599 l -0.272473,1.094 0.183934,0.23062 c 0.216141,0.27103 0.05265,0.25118 1.462646,0.17773 0.649493,-0.0339 1.024221,-0.0392 1.11001,-0.015 0.288288,0.0796 0.491609,0.37595 0.453392,0.66088 -0.01017,0.0747 -0.230042,0.58554 -0.488926,1.1351 -0.258884,0.54955 -0.470699,1.01528 -0.470699,1.03489 0,0.0777 0.26473,0.55579 0.308006,0.55622 0.206973,0.002 2.237085,0.33841 2.328447,0.38566 0.173014,0.0896 0.282242,0.2667 0.299805,0.48648 0.0083,0.1044 -0.0011,0.23172 -0.02096,0.28297 -0.01988,0.0512 -0.338038,0.50066 -0.707021,0.99866 l -0.670882,0.90549 0.08731,0.28289 c 0.048,0.1556 0.09271,0.28834 0.09942,0.29499 0.0068,0.005 0.480253,0.17987 1.052409,0.38476 0.572161,0.20492 1.082119,0.40384 1.133247,0.44199 0.157988,0.11792 0.237716,0.25671 0.255827,0.44517 0.03019,0.31421 -0.0207,0.37952 -0.950762,1.22088 l -0.857863,0.77605 0.01618,0.15343 c 0.0088,0.0842 0.02413,0.22062 0.03401,0.30289 l 0.01791,0.14943 0.972583,0.57735 c 1.13231,0.67215 1.168937,0.70601 1.168937,1.08057 0,0.37457 -0.03661,0.40843 -1.168937,1.08056 l -0.972583,0.57736 -0.02078,0.1682 c -0.01151,0.0924 -0.02824,0.22743 -0.03737,0.29983 -0.01634,0.13009 -0.0062,0.1411 0.844639,0.91073 0.933652,0.84461 0.984334,0.90962 0.954133,1.22394 -0.0181,0.18843 -0.09787,0.32721 -0.255826,0.44517 -0.05113,0.0382 -0.561085,0.23707 -1.133248,0.44201 -0.572156,0.20494 -1.046494,0.37882 -1.054087,0.38641 -0.0078,0.007 -0.05267,0.13976 -0.100234,0.29389 l -0.08641,0.28011 0.671702,0.90657 c 0.369433,0.49861 0.68796,0.94851 0.70784,0.99978 0.01986,0.0512 0.02932,0.17868 0.02096,0.28299 -0.01751,0.21978 -0.126784,0.397 -0.299805,0.48647 -0.09138,0.0474 -2.121475,0.38347 -2.328449,0.38564 -0.04326,4.5e-4 -0.308005,0.47852 -0.308005,0.55621 0,0.0197 0.211817,0.48535 0.470701,1.03492 0.258883,0.54956 0.478898,1.06035 0.488926,1.1351 0.03823,0.28493 -0.16511,0.58128 -0.453394,0.66088 -0.08579,0.0237 -0.460516,0.0195 -1.110007,-0.015 -1.410385,-0.0735 -1.246536,-0.0931 -1.46326,0.175 l -0.184538,0.22833 0.273087,1.09645 c 0.207723,0.83399 0.268612,1.13614 0.254386,1.26236 -0.03391,0.30087 -0.300795,0.53916 -0.603841,0.53916 -0.07482,0 -0.599199,-0.11741 -1.165353,-0.26094 -0.566154,-0.14343 -1.05379,-0.26094 -1.083638,-0.26094 -0.02984,0 -0.152869,0.0795 -0.273361,0.17715 -0.257395,0.20802 -0.239181,0.0479 -0.165777,1.45578 0.03387,0.64949 0.03906,1.0242 0.01534,1.11001 -0.07972,0.28871 -0.375977,0.49159 -0.661818,0.45325 -0.07528,-0.0117 -0.5851,-0.2301 -1.13298,-0.48891 -0.547878,-0.25882 -1.01317,-0.47059 -1.033977,-0.47059 -0.06791,0 -0.55785,0.26094 -0.55785,0.29711 0,0.16061 -0.313782,2.14283 -0.358765,2.26631 -0.0797,0.21881 -0.263348,0.35279 -0.510614,0.37258 -0.106154,0.008 -0.234951,-8.1e-4 -0.286209,-0.0208 -0.05125,-0.02 -0.500655,-0.33806 -0.998667,-0.70704 l -0.905475,-0.67088 -0.28288,0.0872 c -0.155587,0.0479 -0.288304,0.0927 -0.294933,0.0992 -0.0068,0.007 -0.180605,0.48114 -0.386609,1.05446 -0.206009,0.57333 -0.404947,1.08335 -0.442085,1.13334 -0.112375,0.15126 -0.250603,0.23313 -0.427011,0.25303 -0.325328,0.0365 -0.372503,4.8e-4 -1.226822,-0.94071 -0.693084,-0.76359 -0.802265,-0.86911 -0.885855,-0.85604 -0.05243,0.008 -0.188237,0.0247 -0.301788,0.0365 l -0.206444,0.0219 -0.59186,0.98802 c -0.380268,0.63477 -0.632099,1.01663 -0.704406,1.06815 -0.113358,0.0807 -0.462841,0.12708 -0.583383,0.0774 z m 1.919767,-5.95691 c 1.355957,-0.14659 2.604222,-0.4358 3.891918,-0.90165 0.444006,-0.1606 1.29515,-0.51849 1.354039,-0.56928 0.01501,-0.0133 0.136624,-0.71074 0.270417,-1.55075 0.214558,-1.34714 0.256574,-1.5545 0.356285,-1.75828 0.206151,-0.42132 0.618953,-0.68226 1.079236,-0.68226 0.121331,0 0.854589,0.10057 1.62947,0.22353 0.77488,0.12309 1.442425,0.22295 1.483429,0.22222 0.04626,-8.2e-4 0.187671,-0.12992 0.372768,-0.33989 0.360222,-0.40898 0.874137,-1.04572 0.875226,-1.08439 4.32e-4,-0.015 -1.529902,-0.0282 -3.400742,-0.0287 -2.902166,-4.7e-4 -3.436589,-0.008 -3.64036,-0.0569 -0.593262,-0.13976 -1.116045,-0.58589 -1.444961,-1.23286 -0.312148,-0.61397 -0.417335,-0.98647 -0.888283,-3.14571 -0.428136,-1.96294 -0.922166,-2.87723 -1.781704,-3.29743 -0.545739,-0.26678 -0.497153,-0.26252 -2.98979,-0.26252 h -2.23662 v 1.47246 1.47243 l 1.84182,0.01 c 1.284468,0.005 1.856947,0.0222 1.891806,0.0512 0.06945,0.0579 0.07455,4.87617 0.0053,4.94548 -0.03446,0.0343 -1.575573,0.0447 -6.709861,0.0447 -3.665821,0 -6.664775,0.0134 -6.664342,0.028 0.0011,0.0387 0.515005,0.67542 0.875223,1.08439 0.19503,0.22143 0.325457,0.33908 0.376946,0.34001 0.0433,8e-4 0.709637,-0.0991 1.480749,-0.22221 0.771108,-0.12308 1.502492,-0.22367 1.625296,-0.22367 0.463125,0 0.875229,0.25989 1.081914,0.68227 0.09968,0.20377 0.141711,0.41106 0.356047,1.75682 0.133656,0.8392 0.246955,1.52917 0.251779,1.53327 0.05437,0.0462 0.562068,0.27292 0.977977,0.43666 1.550081,0.61029 3.191373,0.98346 4.864647,1.10606 0.625782,0.0459 2.169821,0.0175 2.814417,-0.0529 z m -11.07127,-1.36395 c 0.248265,-0.11892 0.487059,-0.36411 0.607676,-0.6242 0.08015,-0.17285 0.09868,-0.26798 0.09953,-0.51133 9.26e-4,-0.26337 -0.01334,-0.32843 -0.120463,-0.54583 -0.397047,-0.80652 -1.436716,-0.97111 -2.042608,-0.32335 -0.260522,0.27852 -0.333088,0.46813 -0.332935,0.86995 1.12e-4,0.29143 0.01384,0.36342 0.104169,0.54808 0.127152,0.25972 0.40672,0.52003 0.670741,0.62452 0.270738,0.10723 0.748225,0.0894 1.013858,-0.0377 z m 19.753614,0.0375 c 0.270819,-0.10123 0.551041,-0.35804 0.681319,-0.62417 0.09039,-0.18472 0.104086,-0.25662 0.104186,-0.54806 1.49e-4,-0.40182 -0.07241,-0.59143 -0.332933,-0.86995 -0.605894,-0.64776 -1.64556,-0.48317 -2.042608,0.32335 -0.107021,0.2174 -0.121397,0.28247 -0.120463,0.54583 8.52e-4,0.2427 0.01946,0.33864 0.0987,0.50954 0.151901,0.32744 0.464836,0.5987 0.813532,0.70515 0.189404,0.0579 0.587897,0.037 0.798252,-0.0417 z m -20.927842,-15.468 v -5.29335 h -1.379248 c -0.758587,0 -1.379249,0.008 -1.379249,0.0195 0,0.0117 0.113225,0.23997 0.251621,0.50983 l 0.251619,0.49063 -3.37e-4,0.33819 c -2.6e-4,0.2942 -0.01384,0.36591 -0.104369,0.5508 -0.176965,0.36149 -0.336623,0.46902 -1.782083,1.20024 -0.725473,0.36699 -1.346295,0.69062 -1.379605,0.71914 -0.09476,0.0812 -0.163359,0.98828 -0.161525,2.13628 0.002,1.24416 0.07608,2.02216 0.299852,3.14803 0.108172,0.54428 0.299653,1.30397 0.354486,1.4064 0.03459,0.0649 0.155954,0.0679 2.532589,0.0679 h 2.496264 z m 23.50806,5.16695 c 0.489294,-0.13025 0.899686,-0.46968 1.127514,-0.93247 0.19036,-0.38665 0.233914,-0.6361 0.254511,-1.45735 0.01518,-0.60162 0.02984,-0.75812 0.07652,-0.81077 0.05194,-0.0585 0.145964,-0.0651 0.924087,-0.0651 h 0.866266 l 0.02772,-0.62436 c 0.03647,-0.82165 -0.04701,-2.60159 -0.127635,-2.72102 -0.01251,-0.0175 -0.63269,-0.34262 -1.378335,-0.72048 -1.484635,-0.75226 -1.643006,-0.85844 -1.819967,-1.21991 -0.09033,-0.18454 -0.104103,-0.25685 -0.10437,-0.54806 l -3.32e-4,-0.33549 0.55482,-1.09967 c 0.30515,-0.60484 0.636729,-1.25269 0.736846,-1.43968 l 0.182026,-0.34001 -0.355453,-0.5885 c -1.777294,-2.94258 -4.39971,-5.22835 -7.548494,-6.57947 -0.919945,-0.39473 -2.572966,-0.90315 -3.228708,-0.99303 l -0.169569,-0.0233 -1.143229,1.13651 c -1.298388,1.29078 -1.323666,1.30884 -1.833146,1.31037 -0.506502,9.5e-4 -0.559679,-0.0365 -1.852501,-1.32628 l -1.125888,-1.12317 -0.25336,0.0459 c -1.955105,0.3551 -4.310048,1.36167 -6.049934,2.58595 -0.833502,0.58649 -1.849903,1.45349 -2.440463,2.08172 l -0.259754,0.27634 9.038489,0.0195 9.038493,0.0195 0.372769,0.0851 c 0.573397,0.13109 0.998573,0.28316 1.528358,0.54695 1.681305,0.83717 2.904515,2.38422 3.250375,4.11092 0.09059,0.45228 0.08973,1.36819 -0.0016,1.78951 -0.299438,1.38003 -1.135998,2.52383 -2.539512,3.47219 l -0.424077,0.28658 0.243242,0.21754 c 0.89393,0.79955 1.68912,2.16481 1.987409,3.41216 0.04656,0.19475 0.143779,0.46823 0.215992,0.60774 0.224938,0.43449 0.701027,0.79441 1.238272,0.93617 0.262216,0.0694 0.746737,0.0727 0.992748,0.007 z m -10.554298,-7.51864 c 0.798363,-0.0961 1.428635,-0.44895 1.689982,-0.9466 0.08361,-0.15927 0.09837,-0.2344 0.09878,-0.50398 4.65e-4,-0.28199 -0.01151,-0.33878 -0.109907,-0.51621 -0.209259,-0.3778 -0.678095,-0.69943 -1.23154,-0.84491 -0.415407,-0.10924 -1.095939,-0.13159 -3.671786,-0.12142 l -2.553473,0.01 -0.01001,1.43505 c -0.0053,0.7893 -0.0016,1.45607 0.0082,1.48176 0.02372,0.0617 5.270088,0.0674 5.779559,0.007 z m -17.895654,-1.11099 c 0.263371,-0.12958 0.454398,-0.3233 0.589625,-0.59771 0.121931,-0.2474 0.120597,-0.8025 -0.0025,-1.05165 -0.279383,-0.56533 -0.900715,-0.85429 -1.476864,-0.68679 -0.396369,0.11524 -0.659519,0.34446 -0.834721,0.72716 -0.1968295,0.42992 -0.09171,1.00599 0.247346,1.35562 0.284113,0.29298 0.563087,0.40419 0.966131,0.38516 0.21046,-0.01 0.321866,-0.0387 0.510995,-0.13175 z m 32.050375,0.042 c 0.619995,-0.27488 0.929913,-1.054 0.656669,-1.65087 -0.316892,-0.69217 -1.058418,-0.96372 -1.729535,-0.63332 -0.416369,0.20499 -0.649158,0.56506 -0.678874,1.05008 -0.03726,0.60826 0.298906,1.09001 0.896932,1.28543 0.217901,0.071 0.634982,0.0462 0.854808,-0.0514 z M 27.914115,240.10678 c 0.267542,-0.12425 0.496699,-0.35298 0.622678,-0.62169 0.08257,-0.17617 0.09868,-0.26231 0.0985,-0.52741 -1.85e-4,-0.27093 -0.01518,-0.34758 -0.104153,-0.52896 -0.15005,-0.30613 -0.449014,-0.56728 -0.758997,-0.66303 -0.307093,-0.0947 -0.46375,-0.0947 -0.770842,0 -0.309798,0.0957 -0.60884,0.35684 -0.759199,0.66303 -0.08921,0.18162 -0.104186,0.25755 -0.104186,0.52896 0,0.26486 0.01618,0.35142 0.09872,0.52741 0.153569,0.32755 0.456883,0.59079 0.814578,0.70698 0.192091,0.0626 0.640179,0.0175 0.862889,-0.0852 z"
       id="path832"
       inkscape:connector-curvature="0" /><text
       xml:space="preserve"
       style="font-style:normal;font-variant:normal;font-weight:normal;font-stretch:normal;font-size:11.2889px;line-height:1.25;font-family:'Dela Gothic One';-inkscape-font-specification:'Dela Gothic One';letter-spacing:0px;word-spacing:0px;fill:#000000;fill-opacity:1;stroke:none;stroke-width:0.264583"
       x="55.871964"
       y="251.44806"
       id="text828"><tspan
         sodipodi:role="line"
         x="55.871964"
         y="251.44806"
         style="font-style:normal;font-variant:normal;font-weight:normal;font-stretch:normal;font-size:16.9333px;font-family:'Dela Gothic One';-inkscape-font-specification:'Dela Gothic One, Normal';font-variant-ligatures:normal;font-variant-caps:normal;font-variant-numeric:normal;font-variant-east-asian:normal;stroke-width:0.264583"
         id="tspan3">Builder</tspan><tspan
         sodipodi:role="line"
         x="55.871964"
         y="272.61469"
         style="font-style:normal;font-variant:normal;font-weight:normal;font-stretch:normal;font-size:16.9333px;font-family:'Dela Gothic One';-inkscape-font-specification:'Dela Gothic One, Normal';font-variant-ligatures:normal;font-variant-caps:normal;font-variant-numeric:normal;font-variant-east-asian:normal;stroke-width:0.264583"
         id="tspan1">Patterns</tspan></text><text
       xml:space="preserve"
       style="font-style:normal;font-variant:normal;font-weight:normal;font-stretch:normal;font-size:9.87778px;line-height:1.25;font-family:'Dela Gothic One';-inkscape-font-specification:'Dela Gothic One';letter-spacing:0px;word-spacing:0px;fill:#4671ac;fill-opacity:1;stroke:none;stroke-width:0.264583"
       x="54.310291"
       y="230.86682"
       id="text836"><tspan
         sodipodi:role="line"
         id="tspan834"
         x="54.310291"
         y="230.86682"
         style="font-style:normal;font-variant:normal;font-weight:normal;font-stretch:normal;font-size:9.87778px;font-family:Marcellus;-inkscape-font-specification:'Marcellus, Normal';font-variant-ligatures:normal;font-variant-caps:normal;font-variant-numeric:normal;font-variant-east-asian:normal;fill:#4671ac;fill-opacity:1;stroke-width:0.264583">Rethinking</tspan></text><text
       xml:space="preserve"
       style="font-style:normal;font-variant:normal;font-weight:normal;font-stretch:normal;font-size:9.87778px;line-height:1.25;font-family:'Dela Gothic One';-inkscape-font-specification:'Dela Gothic One';letter-spacing:0px;word-spacing:0px;fill:#4671ac;fill-opacity:1;stroke:none;stroke-width:0.264583"
       x="70.019295"
       y="286.1868"
       id="text836-3"><tspan
         sodipodi:role="line"
         id="tspan834-6"
         x="70.019295"
         y="286.1868"
         style="font-style:normal;font-variant:normal;font-weight:normal;font-stretch:normal;font-size:9.87778px;font-family:Marcellus;-inkscape-font-specification:'Marcellus, Normal';font-variant-ligatures:normal;font-variant-caps:normal;font-variant-numeric:normal;font-variant-east-asian:normal;fill:#4671ac;fill-opacity:1;stroke-width:0.264583">with Lazy Generics</tspan></text></g></svg>
